<svg width="100" height="100" viewBox="0 0 100 100" fill="none" xmlns="http://www.w3.org/2000/svg">
  <circle cx="50" cy="50" r="48" fill="#111827" />

  <path d="M28 25C24 25 21 28 21 32V38L35 38V32C35 28 32 25 28 25Z" fill="#FFFFFF"/>
  <path d="M72 25C76 25 79 28 79 32V38L65 38V32C65 28 68 25 72 25Z" fill="#FFFFFF"/>

  <path d="M25 40H75V70C75 78 68 85 60 85H40C32 85 25 78 25 70V40Z" fill="#FFFFFF"/>
  
  <rect x="30" y="48" width="16" height="18" rx="2" fill="#111827"/>
  <rect x="54" y="48" width="16" height="18" rx="2" fill="#111827"/>
  
  <rect x="34" y="53" width="8" height="8" rx="1" fill="#00E676"/>
  <rect x="58" y="53" width="8" height="8" rx="1" fill="#00E676"/>
  
  <path d="M46 72H54V76C54 77 53 78 52 78H48C47 78 46 77 46 76V72Z" fill="#111827"/>
  
  <rect x="25" y="40" width="50" height="4" fill="#E5E7EB"/>
</svg>