<svg width="24" height="24" viewBox="0 0 24 24" fill="none" xmlns="http://www.w3.org/2000/svg">
  <circle cx="12" cy="12" r="12" fill="#000000"/>
  
  <path d="M7 6.5H12.5C14.9853 6.5 17 8.51472 17 11C17 12.352 16.4023 13.5645 15.4542 14.3941C16.3908 15.0289 17 16.0924 17 17.3C17 19.3435 15.3435 21 13.3 21H7V6.5Z" fill="#F7A600"/>
  
  <path d="M10.2 9.1V12.1H12.2C13.0284 12.1 13.7 11.4284 13.7 10.6C13.7 9.77157 13.0284 9.1 12.2 9.1H10.2Z" fill="black"/>
  <path d="M10.2 14.9V18.4H13C13.9941 18.4 14.8 17.5941 14.8 16.65C14.8 15.7059 13.9941 14.9 13 14.9H10.2Z" fill="black"/>
</svg>