<svg width="24" height="24" viewBox="0 0 24 24" fill="none" xmlns="http://www.w3.org/2000/svg">
  <path d="M12 24C18.6274 24 24 18.6274 24 12C24 5.37258 18.6274 0 12 0C5.37258 0 0 5.37258 0 12C0 18.6274 5.37258 24 12 24Z" fill="#0052FF"/>
  <path fill-rule="evenodd" clip-rule="evenodd" d="M12 17.5C15.0376 17.5 17.5 15.0376 17.5 12C17.5 8.96243 15.0376 6.5 12 6.5C8.96243 6.5 6.5 8.96243 6.5 12C6.5 15.0376 8.96243 17.5 12 17.5ZM12 20C16.4183 20 20 16.4183 20 12C20 7.58172 16.4183 4 12 4C7.58172 4 4 7.58172 4 12C4 16.4183 7.58172 20 12 20Z" fill="white"/>
</svg>